<?xml version="1.0" encoding="utf-8"?>
<!-- Generator: Adobe Illustrator 16.0.0, SVG Export Plug-In . SVG Version: 6.00 Build 0)  -->
<!DOCTYPE svg PUBLIC "-//W3C//DTD SVG 1.1//EN" "http://www.w3.org/Graphics/SVG/1.1/DTD/svg11.dtd">
<svg version="1.1"
	 id="tex-svg" xmlns:dc="http://purl.org/dc/elements/1.1/" xmlns:cc="http://web.resource.org/cc/" xmlns:rdf="http://www.w3.org/1999/02/22-rdf-syntax-ns#" xmlns:sodipodi="http://inkscape.sourceforge.net/DTD/sodipodi-0.dtd" sodipodi:docbase="/home/alejo" sodipodi:version="0.32" sodipodi:docname="tex_logo.svg"
	 xmlns="http://www.w3.org/2000/svg" xmlns:xlink="http://www.w3.org/1999/xlink" x="0px" y="0px" width="72.004px" height="24px"
	 viewBox="0 0 72.004 24" enable-background="new 0 0 72.004 24" xml:space="preserve">
<g id="g-tex-noerror" transform="matrix(24.425 0 0 24.425 4.6066 23.033)">
	<path id="path14" fill="#bcf795" d="M2.124-0.716H1.786l-0.01,0.124h0.01c0.008-0.093,0.016-0.109,0.107-0.109
		c0.011,0,0.028,0,0.032,0C1.936-0.699,1.936-0.693,1.936-0.68v0.304c0,0.02-0.002,0.026-0.051,0.026H1.869v0.013
		c0.028-0.001,0.057-0.001,0.086-0.001s0.058,0.001,0.086,0.001V-0.35H2.024c-0.049,0-0.05-0.006-0.05-0.026V-0.68
		c0-0.012,0-0.019,0.011-0.021h0.032c0.089,0,0.098,0.016,0.106,0.109h0.011"/>
	<path id="path16" fill="#bcf795" d="M2.417-0.356h-0.01c-0.013,0.083-0.02,0.128-0.123,0.128H2.202
		c-0.023,0-0.024-0.003-0.024-0.022v-0.156h0.055c0.055,0,0.06,0.019,0.06,0.066h0.009v-0.145H2.293c0,0.046-0.005,0.065-0.06,0.065
		H2.178v-0.138c0-0.019,0.001-0.022,0.024-0.022h0.08c0.091,0,0.101,0.034,0.109,0.108h0.011L2.388-0.595H2.092v0.015
		c0.041,0,0.048,0,0.048,0.025v0.301c0,0.025-0.007,0.025-0.048,0.025v0.013h0.304"/>
	<path id="path18" fill="#bcf795" d="M2.575-0.548l0.086-0.119C2.67-0.679,2.687-0.703,2.735-0.703v-0.013
		c-0.013,0.001-0.036,0.001-0.05,0.001c-0.019,0-0.043,0-0.058-0.001v0.013c0.02,0.001,0.024,0.012,0.024,0.021
		c0,0.007-0.003,0.011-0.007,0.017L2.567-0.558L2.481-0.679C2.477-0.685,2.476-0.687,2.476-0.688c0-0.005,0.006-0.015,0.026-0.015
		v-0.013c-0.019,0-0.048,0-0.067,0c-0.015,0-0.044,0-0.059-0.001v0.013c0.032,0,0.043,0.001,0.056,0.018l0.113,0.158L2.443-0.385
		C2.418-0.35,2.38-0.349,2.369-0.349v0.013c0.013-0.001,0.036-0.001,0.05-0.001c0.016,0,0.043,0,0.058,0.001v-0.013
		C2.458-0.351,2.453-0.362,2.453-0.371c0-0.007,0.003-0.011,0.006-0.015l0.094-0.13l0.102,0.143C2.66-0.367,2.66-0.365,2.66-0.363
		c0,0.004-0.005,0.014-0.026,0.015v0.013C2.652-0.337,2.681-0.337,2.7-0.337c0.015,0,0.044,0,0.059,0.001v-0.013
		c-0.037,0-0.043-0.003-0.055-0.018"/>
</g>
<g id="g-tex-error" transform="matrix(24.425 0 0 24.425 4.6066 23.033)">
	<path id="path14_2_" fill="#f7c94e" d="M1.141-0.716H0.803l-0.01,0.124h0.01C0.811-0.685,0.82-0.701,0.91-0.701
		c0.011,0,0.028,0,0.032,0C0.953-0.699,0.953-0.693,0.953-0.68v0.304c0,0.02-0.002,0.026-0.051,0.026H0.886v0.013
		c0.028-0.001,0.057-0.001,0.086-0.001c0.029,0,0.058,0.001,0.086,0.001V-0.35H1.042c-0.049,0-0.05-0.006-0.05-0.026V-0.68
		c0-0.012,0-0.019,0.011-0.021h0.032c0.089,0,0.098,0.016,0.106,0.109h0.01"/>
	<path id="path16_2_" fill="#f7c94e" d="M1.435-0.356H1.424c-0.013,0.083-0.02,0.128-0.123,0.128H1.219
		c-0.023,0-0.024-0.003-0.024-0.022v-0.156H1.25c0.055,0,0.06,0.019,0.06,0.066h0.009v-0.145H1.311c0,0.046-0.005,0.065-0.06,0.065
		H1.195v-0.138c0-0.019,0.001-0.022,0.024-0.022h0.08c0.091,0,0.101,0.034,0.109,0.108h0.011L1.405-0.595H1.109v0.015
		c0.041,0,0.048,0,0.048,0.025v0.301c0,0.025-0.007,0.025-0.048,0.025v0.013h0.304"/>
	<path id="path18_2_" fill="#f7c94e" d="M1.592-0.548l0.087-0.119c0.009-0.012,0.026-0.036,0.074-0.036v-0.013
		C1.74-0.715,1.717-0.715,1.703-0.715c-0.019,0-0.043,0-0.058-0.001v0.013C1.664-0.701,1.668-0.69,1.668-0.681
		c0,0.007-0.003,0.011-0.007,0.017L1.585-0.558L1.498-0.679C1.494-0.685,1.493-0.687,1.493-0.688c0-0.005,0.006-0.015,0.026-0.015
		v-0.013c-0.019,0-0.047,0-0.066,0c-0.015,0-0.044,0-0.059-0.001v0.013c0.032,0,0.043,0.001,0.056,0.018l0.113,0.158L1.461-0.385
		C1.436-0.35,1.398-0.349,1.386-0.349v0.013c0.013-0.001,0.036-0.001,0.05-0.001c0.016,0,0.043,0,0.058,0.001v-0.013
		C1.476-0.351,1.471-0.362,1.471-0.371c0-0.007,0.003-0.011,0.006-0.015l0.094-0.13l0.102,0.143c0.005,0.006,0.005,0.008,0.005,0.01
		c0,0.004-0.005,0.014-0.026,0.015v0.013c0.019-0.001,0.047-0.001,0.067-0.001c0.015,0,0.044,0,0.059,0.001v-0.013
		c-0.037,0-0.043-0.003-0.055-0.018"/>
</g>
<g id="g-tex-normal" transform="matrix(24.425 0 0 24.425 4.6066 23.033)">
	<path id="path14_1_" fill="#dddddd" d="M0.158-0.716h-0.337l-0.01,0.124h0.01c0.008-0.092,0.016-0.109,0.107-0.109
		c0.011,0,0.028,0,0.032,0C-0.029-0.7-0.029-0.693-0.029-0.68v0.304c0,0.02-0.002,0.026-0.051,0.026h-0.017v0.013
		c0.028-0.001,0.057-0.001,0.086-0.001s0.058,0.001,0.086,0.001V-0.35H0.059c-0.049,0-0.05-0.006-0.05-0.026V-0.68
		c0-0.012,0-0.019,0.011-0.021h0.032c0.089,0,0.098,0.016,0.106,0.109h0.011"/>
	<path id="path16_1_" fill="#dddddd" d="M0.452-0.356H0.441c-0.012,0.083-0.02,0.128-0.123,0.128H0.237
		c-0.023,0-0.024-0.003-0.024-0.022v-0.156h0.055c0.055,0,0.06,0.019,0.06,0.066h0.009v-0.145H0.328c0,0.046-0.005,0.065-0.06,0.065
		H0.212v-0.138c0-0.019,0.001-0.022,0.024-0.022h0.08c0.091,0,0.101,0.034,0.109,0.108h0.011L0.423-0.595H0.126v0.015
		c0.041,0,0.048,0,0.048,0.025v0.301c0,0.025-0.007,0.025-0.048,0.025v0.013h0.305"/>
	<path id="path18_1_" fill="#dddddd" d="M0.61-0.548l0.087-0.119c0.009-0.012,0.026-0.036,0.074-0.036v-0.013
		c-0.014,0-0.036,0-0.05,0c-0.019,0-0.043,0-0.058-0.001v0.013c0.019,0.002,0.023,0.013,0.023,0.022
		c0,0.007-0.003,0.011-0.007,0.017L0.602-0.558L0.515-0.679C0.511-0.685,0.511-0.687,0.511-0.688c0-0.005,0.006-0.015,0.026-0.015
		v-0.013c-0.019,0-0.048,0-0.067,0c-0.015,0-0.044,0-0.059-0.001v0.013c0.032,0,0.043,0.001,0.056,0.018L0.58-0.528L0.478-0.385
		C0.453-0.35,0.415-0.349,0.404-0.349v0.013c0.013-0.001,0.036-0.001,0.05-0.001c0.016,0,0.043,0,0.058,0.001v-0.013
		C0.493-0.351,0.488-0.362,0.488-0.371c0-0.007,0.003-0.011,0.006-0.015l0.094-0.13L0.69-0.373c0.005,0.006,0.005,0.008,0.005,0.01
		c0,0.004-0.005,0.014-0.026,0.015v0.013c0.019-0.001,0.047-0.001,0.067-0.001c0.015,0,0.044,0,0.059,0.001v-0.013
		c-0.037,0-0.043-0.003-0.055-0.018"/>
</g>
</svg>
